<svg xmlns="http://www.w3.org/2000/svg" viewBox="0 0 3307 2338" width="1102" height="779">
<image href="../pages/page-039.png" width="3307" height="2338"/>
<rect x="1422" y="184" width="1585" height="867" fill="none" stroke="#08f" stroke-dasharray="12 8" stroke-width="3"/>
<circle cx="604.5" cy="54.0" r="13.3" fill="none" stroke="#f80" stroke-width="3"/>
<circle cx="606.5" cy="153.5" r="13.3" fill="none" stroke="#f80" stroke-width="3"/>
<circle cx="605.0" cy="253.5" r="13.3" fill="none" stroke="#f80" stroke-width="3"/>
<circle cx="604.5" cy="354.0" r="13.3" fill="none" stroke="#f80" stroke-width="3"/>
<circle cx="605.0" cy="454.5" r="13.3" fill="none" stroke="#f80" stroke-width="3"/>
<circle cx="605.5" cy="553.5" r="13.3" fill="none" stroke="#f80" stroke-width="3"/>
<circle cx="604.5" cy="653.0" r="13.3" fill="none" stroke="#f80" stroke-width="3"/>
<circle cx="604.5" cy="753.0" r="13.3" fill="none" stroke="#f80" stroke-width="3"/>
<circle cx="605.0" cy="853.5" r="13.3" fill="none" stroke="#f80" stroke-width="3"/>
<circle cx="606.0" cy="951.0" r="13.3" fill="none" stroke="#f80" stroke-width="3"/>
<circle cx="605.5" cy="1051.0" r="13.3" fill="none" stroke="#f80" stroke-width="3"/>
<circle cx="604.0" cy="1152.0" r="13.3" fill="none" stroke="#f80" stroke-width="3"/>
<circle cx="606.0" cy="1251.0" r="13.3" fill="none" stroke="#f80" stroke-width="3"/>
<circle cx="606.0" cy="1351.5" r="13.3" fill="none" stroke="#f80" stroke-width="3"/>
<circle cx="604.5" cy="1450.5" r="13.3" fill="none" stroke="#f80" stroke-width="3"/>
<circle cx="605.5" cy="1552.5" r="13.3" fill="none" stroke="#f80" stroke-width="3"/>
<circle cx="604.0" cy="1652.0" r="13.3" fill="none" stroke="#f80" stroke-width="3"/>
<circle cx="604.5" cy="1754.0" r="13.3" fill="none" stroke="#f80" stroke-width="3"/>
<circle cx="604.5" cy="1854.0" r="13.3" fill="none" stroke="#f80" stroke-width="3"/>
<circle cx="604.0" cy="1951.5" r="13.3" fill="none" stroke="#f80" stroke-width="3"/>
<circle cx="605.5" cy="2052.0" r="13.3" fill="none" stroke="#f80" stroke-width="3"/>
<circle cx="604.0" cy="2157.5" r="13.3" fill="none" stroke="#f80" stroke-width="3"/>
<circle cx="604.6" cy="2256.4" r="13.3" fill="none" stroke="#f80" stroke-width="3" stroke-dasharray="6 5"/>
<rect x="1427.0" y="202.0" width="152.0" height="24.0" fill="#0a0" fill-opacity="0.12" stroke="#0a0" stroke-width="2"><title>line 2134: AND (40000</title></rect>
<rect x="1707.0" y="202.0" width="354.0" height="22.0" fill="#0a0" fill-opacity="0.12" stroke="#0a0" stroke-width="2"><title>line 2134: /TEST IF RINGSTART</title></rect>
<rect x="1427.0" y="238.0" width="13.0" height="20.0" fill="#0a0" fill-opacity="0.12" stroke="#0a0" stroke-width="2"><title>line 2135: SZA</title></rect>
<rect x="1427.0" y="270.0" width="234.0" height="22.0" fill="#0a0" fill-opacity="0.12" stroke="#0a0" stroke-width="2"><title>line 2136: JMP I DELB-JMS</title></rect>
<rect x="1708.0" y="270.0" width="313.0" height="23.0" fill="#0a0" fill-opacity="0.12" stroke="#0a0" stroke-width="2"><title>line 2136: /EXIT IF ILLEGAL</title></rect>
<rect x="1427.0" y="305.0" width="152.0" height="24.0" fill="#0a0" fill-opacity="0.12" stroke="#0a0" stroke-width="2"><title>line 2137: LAC I OP+1</title></rect>
<rect x="1427.0" y="336.0" width="52.0" height="22.0" fill="#0a0" fill-opacity="0.12" stroke="#0a0" stroke-width="2"><title>line 2138: CAR 7</title></rect>
<rect x="1427.0" y="371.0" width="112.0" height="23.0" fill="#0a0" fill-opacity="0.12" stroke="#0a0" stroke-width="2"><title>line 2139: DAC OP 2</title></rect>
<rect x="1707.0" y="369.0" width="414.0" height="24.0" fill="#0a0" fill-opacity="0.12" stroke="#0a0" stroke-width="2"><title>line 2139: /MOVE TO NEXT IN RING</title></rect>
<rect x="1427.0" y="404.0" width="152.0" height="23.0" fill="#0a0" fill-opacity="0.12" stroke="#0a0" stroke-width="2"><title>line 2140: LAC I OP 1</title></rect>
<rect x="1427.0" y="437.0" width="52.0" height="22.0" fill="#0a0" fill-opacity="0.12" stroke="#0a0" stroke-width="2"><title>line 2141: CAR 7</title></rect>
<rect x="1427.0" y="470.0" width="112.0" height="24.0" fill="#0a0" fill-opacity="0.12" stroke="#0a0" stroke-width="2"><title>line 2142: SAD OP+3</title></rect>
<rect x="1707.0" y="469.0" width="895.0" height="25.0" fill="#0a0" fill-opacity="0.12" stroke="#0a0" stroke-width="2"><title>line 2142: /DOES THIS POINT BACK TO THE ORIGINAL ELEMENT</title></rect>
<rect x="1427.0" y="505.0" width="13.0" height="20.0" fill="#0a0" fill-opacity="0.12" stroke="#0a0" stroke-width="2"><title>line 2143: SKP</title></rect>
<rect x="1427.0" y="537.0" width="92.0" height="28.0" fill="#0a0" fill-opacity="0.12" stroke="#0a0" stroke-width="2"><title>line 2144: JMP .-5</title></rect>
<rect x="1427.0" y="573.0" width="152.0" height="22.0" fill="#0a0" fill-opacity="0.12" stroke="#0a0" stroke-width="2"><title>line 2145: LAC I OP+2</title></rect>
<rect x="1427.0" y="606.0" width="153.0" height="24.0" fill="#0a0" fill-opacity="0.12" stroke="#0a0" stroke-width="2"><title>line 2146: AND (40000</title></rect>
<rect x="1707.0" y="603.0" width="454.0" height="26.0" fill="#0a0" fill-opacity="0.12" stroke="#0a0" stroke-width="2"><title>line 2146: /PRESERVE IF RING START</title></rect>
<rect x="1427.0" y="639.0" width="152.0" height="24.0" fill="#0a0" fill-opacity="0.12" stroke="#0a0" stroke-width="2"><title>line 2147: TAD I OP+3</title></rect>
<rect x="1427.0" y="671.0" width="152.0" height="24.0" fill="#0a0" fill-opacity="0.12" stroke="#0a0" stroke-width="2"><title>line 2148: DAC I OP+2</title></rect>
<rect x="1707.0" y="669.0" width="294.0" height="25.0" fill="#0a0" fill-opacity="0.12" stroke="#0a0" stroke-width="2"><title>line 2148: /DELETE POINTER</title></rect>
<rect x="1426.0" y="705.0" width="74.0" height="20.0" fill="#0a0" fill-opacity="0.12" stroke="#0a0" stroke-width="2"><title>line 2149: LAC OP</title></rect>
<rect x="1427.0" y="740.0" width="13.0" height="18.0" fill="#0a0" fill-opacity="0.12" stroke="#0a0" stroke-width="2"><title>line 2150: POP</title></rect>
<rect x="1427.0" y="772.0" width="234.0" height="21.0" fill="#0a0" fill-opacity="0.12" stroke="#0a0" stroke-width="2"><title>line 2151: JMP I DELB-JMS</title></rect>
<rect x="1444.6" y="903.8" width="109.2" height="29.0" fill="#e00" fill-opacity="0.12" stroke="#e00" stroke-width="2"><title>line 2155: PAUSE</title></rect>
</svg>